
<svg
   xmlns:dc="http://purl.org/dc/elements/1.1/"
   xmlns:cc="http://creativecommons.org/ns#"
   xmlns:rdf="http://www.w3.org/1999/02/22-rdf-syntax-ns#"
   xmlns:svg="http://www.w3.org/2000/svg"
   xmlns="http://www.w3.org/2000/svg"
   xmlns:sodipodi="http://sodipodi.sourceforge.net/DTD/sodipodi-0.dtd"
   xmlns:inkscape="http://www.inkscape.org/namespaces/inkscape"
   version="1.0"
   width="256.000000pt"
   height="256.000000pt"
   viewBox="0 0 256.000000 256.000000"
   preserveAspectRatio="xMidYMid meet"
   id="svg10"
   sodipodi:docname="hamburger11.svg"
   inkscape:version="1.0.2-2 (e86c870879, 2021-01-15)">
  <defs
     id="defs14" />
  <sodipodi:namedview
     pagecolor="#ffffff"
     bordercolor="#666666"
     borderopacity="1"
     objecttolerance="10"
     gridtolerance="10"
     guidetolerance="10"
     inkscape:pageopacity="0"
     inkscape:pageshadow="2"
     inkscape:window-width="1920"
     inkscape:window-height="1017"
     id="namedview12"
     showgrid="false"
     inkscape:zoom="2.4902344"
     inkscape:cx="145.67562"
     inkscape:cy="133.31096"
     inkscape:window-x="-8"
     inkscape:window-y="-8"
     inkscape:window-maximized="1"
     inkscape:current-layer="svg10" />
  <metadata
     id="metadata2">
Created by potrace 1.16, written by Peter Selinger 2001-2019
<rdf:RDF>
  <cc:Work
     rdf:about="">
    <dc:format>image/svg+xml</dc:format>
    <dc:type
       rdf:resource="http://purl.org/dc/dcmitype/StillImage" />
    <dc:title></dc:title>
  </cc:Work>
</rdf:RDF>
</metadata>
  <g
     transform="translate(0.000000,256.000000) scale(0.100000,-0.100000)"
     fill="#000000"
     stroke="none"
     id="g8">
    <path
       d="M1075 2079 c-176 -24 -342 -87 -451 -171 -64 -50 -137 -141 -170 -214 -27 -58 -64 -194 -64 -235 0 -24 -5 -28 -38 -34 -89 -15 -139 -78 -129 -162 6 -53 27 -87 70 -110 30 -17 92 -18 987 -18 937 0 956 0 988 20 19 11 42 37 53 57 48 94 -4 193 -113 213 -33 6 -38 11 -38 35 0 40 -37 176 -64 234 -87 188 -274 318 -536 371 -91 19 -397 28 -495 14z m476 -143 c156 -36 263 -91 346 -179 79 -84 122 -172 138 -282 l7 -45 -755 0 c-470 0 -758 4 -762 10 -9 14 22 135 51 196 33 69 113 157 187 205 69 45 190 87 302 105 103 17 394 11 486 -10z"
       id="path4" />
    <path
       d="M2105 1094 c-11 -3 -121 -36 -245 -74 -124 -37 -254 -71 -290 -75 -53 -5 -161 8 -582 69 -533 78 -646 88 -699 61 -71 -37 -94 -154 -43 -215 31 -36 73 -60 107 -60 24 0 25 -3 29 -82 7 -127 61 -208 157 -237 53 -15 1419 -16 1476 0 53 15 129 91 144 144 6 22 11 70 11 106 l0 66 42 6 c134 18 175 198 62 268 -35 21 -128 34 -169 23z m-55 -336 c0 -71 -18 -117 -53 -138 -31 -19 -56 -20 -717 -20 -661 0 -686 1 -717 20 -35 21 -53 67 -53 138 l0 42 770 0 770 0 0 -42z"
       id="path6" />
  </g>
  <ellipse
     style="fill:#030000;fill-opacity:1;fill-rule:evenodd;stroke-width:0.819035"
     id="path24"
     cx="83.764702"
     cy="96.941177"
     rx="8.7717648"
     ry="7.4917645" />
  <ellipse
     style="fill:#030000;fill-opacity:1;fill-rule:evenodd;stroke-width:0.819035"
     id="path24-0"
     cx="106.61646"
     cy="74.390587"
     rx="8.7717648"
     ry="7.4917645" />
  <ellipse
     style="fill:#030000;fill-opacity:1;fill-rule:evenodd;stroke-width:0.819035"
     id="path24-5"
     cx="125.96706"
     cy="96.828232"
     rx="8.7717648"
     ry="7.4917645" />
  <ellipse
     style="fill:#030000;fill-opacity:1;fill-rule:evenodd;stroke-width:0.819035"
     id="path24-3"
     cx="176.79059"
     cy="84.329407"
     rx="8.7717648"
     ry="7.4917645" />
</svg>
